<?xml version="1.0" ?><svg id="Layer_1" style="enable-background:new 0 0 48 48;" version="1.1" viewBox="0 0 48 48" xml:space="preserve" xmlns="http://www.w3.org/2000/svg" xmlns:xlink="http://www.w3.org/1999/xlink"><path d="M39,36c-0.2-1.3-0.6-2.5-1-3.6c-0.5-1.2-0.9-2.4-1-3.7c-0.1-1.2-0.1-2.4-0.1-3.6c0-1.3,0-2.7-0.1-4c-0.4-3.9-2-7-4.5-9.2  c-1.2-1-2.7-1.8-4.2-2.3C27.7,7.5,26.1,6,24,6c-2,0-3.7,1.5-3.9,3.4c-1.5,0.5-3,1.3-4.2,2.3c-2.6,2.2-4.1,5.3-4.5,9.2  c-0.1,1.4-0.1,2.7-0.1,4c0,1.3,0,2.4-0.1,3.6c-0.1,1.3-0.6,2.5-1,3.7c-0.4,1.1-0.9,2.3-1,3.6c-0.1,0.5,0.1,0.9,0.3,1.3  c0.3,0.3,0.7,0.5,1.2,0.5h8.5c0.4,2.4,2.4,4.2,4.9,4.2c2.5,0,4.5-1.9,4.9-4.2h8.5c0.5,0,0.9-0.2,1.2-0.5C38.9,36.9,39.1,36.4,39,36z   M24,8c0.7,0,1.4,0.4,1.7,0.9c-0.6-0.1-1.1-0.1-1.7-0.1c-0.6,0-1.1,0.1-1.7,0.1C22.7,8.4,23.3,8,24,8z M24,40c-1.4,0-2.6-1-2.9-2.2  h5.8C26.5,39,25.4,40,24,40z M11.1,35.8c0.2-0.9,0.5-1.8,0.9-2.7c0.5-1.3,1-2.7,1.1-4.2c0.1-1.3,0.1-2.6,0.1-3.8  c0-1.3,0-2.6,0.1-3.8c0.3-3.3,1.7-6.1,3.8-7.9c1.9-1.6,4.3-2.5,6.9-2.5c2.6,0,5,0.9,6.9,2.5c2.2,1.8,3.5,4.5,3.8,7.9  c0.1,1.3,0.1,2.5,0.1,3.8c0,1.2,0,2.5,0.1,3.8c0.1,1.5,0.6,2.9,1.1,4.2c0.3,0.9,0.7,1.8,0.9,2.7H11.1z"/></svg>